<svg xmlns="http://www.w3.org/2000/svg" width="125.091" height="73.101" viewBox="0 0 125.091 73.101">
  <g id="Group_50" data-name="Group 50" transform="translate(633.037 -205.856)">
    <path id="Path_100" data-name="Path 100" d="M-581.032,207.717H-608.9v31.4a7.838,7.838,0,0,1,4.64-1.532,7.853,7.853,0,0,1,4.655,1.529V217.009h16.665a2.789,2.789,0,0,1,2.79,2.787,2.79,2.79,0,0,1-2.79,2.789h-8.406a4.632,4.632,0,0,0-4.595,4.645,4.635,4.635,0,0,0,4.595,4.646h8.406A12.1,12.1,0,0,0-570.86,219.8c0-6.014-4.4-12.079-10.172-12.079" transform="translate(-7.652 -0.59)" fill="#f15a29"/>
    <path id="Path_101" data-name="Path 101" d="M-611.161,247.048a4.634,4.634,0,0,0-4.64,4.54c0,.019-.008.038-.008.059v8.411a2.784,2.784,0,0,1-2.786,2.787h0a2.543,2.543,0,0,1-2.641-2.641V227.355a9.528,9.528,0,0,1-4.719,1.255,9.535,9.535,0,0,1-4.718-1.255v34.609a8.39,8.39,0,0,0,1.044,4.023c1.987,3.673,6.524,6.148,11.035,6.148a12,12,0,0,0,3-.392,12.017,12.017,0,0,0,4.179-2,12.14,12.14,0,0,0,4.358-6.1,12.1,12.1,0,0,0,.544-3.585v-8.411a4.636,4.636,0,0,0-4.642-4.6" transform="translate(-0.749 -6.815)" fill="#fbb040"/>
    <path id="Path_102" data-name="Path 102" d="M-626.7,218.52a6.319,6.319,0,0,0,4.927-2.358,6.316,6.316,0,0,0,1.4-3.975,6.331,6.331,0,0,0-6.331-6.332,6.332,6.332,0,0,0-6.332,6.332,6.313,6.313,0,0,0,1.4,3.975,6.316,6.316,0,0,0,4.927,2.358" fill="#fbb040"/>
    <path id="Path_103" data-name="Path 103" d="M-626.639,309.819a1.587,1.587,0,0,1-.223.077,2.728,2.728,0,0,1-.289.057,2.467,2.467,0,0,1-.367.025,1.292,1.292,0,0,1-.554-.108.984.984,0,0,1-.37-.292,1.166,1.166,0,0,1-.2-.439,2.263,2.263,0,0,1-.064-.549,1.809,1.809,0,0,1,.1-.626,1.2,1.2,0,0,1,.256-.42.964.964,0,0,1,.367-.237,1.277,1.277,0,0,1,.425-.073,2.128,2.128,0,0,1,.581.073,2.278,2.278,0,0,1,.448.178l.272-.773c-.033-.021-.085-.049-.157-.085a1.784,1.784,0,0,0-.271-.108,3.108,3.108,0,0,0-.38-.092,2.657,2.657,0,0,0-.481-.04,2.4,2.4,0,0,0-.849.147,1.862,1.862,0,0,0-.675.433,2.033,2.033,0,0,0-.445.7,2.575,2.575,0,0,0-.163.943,2.329,2.329,0,0,0,.533,1.638,2,2,0,0,0,1.55.577,3.173,3.173,0,0,0,.837-.1,2.133,2.133,0,0,0,.56-.221l-.26-.767c-.052.025-.111.052-.174.081" transform="translate(-1.063 -31.868)" fill="#808285"/>
    <path id="Path_104" data-name="Path 104" d="M-621.243,309.174a1.306,1.306,0,0,1-.216.433.964.964,0,0,1-.35.279,1.073,1.073,0,0,1-.466.1,1.074,1.074,0,0,1-.47-.1.962.962,0,0,1-.346-.279,1.283,1.283,0,0,1-.217-.433,1.949,1.949,0,0,1-.075-.564,1.97,1.97,0,0,1,.075-.562,1.291,1.291,0,0,1,.217-.436,1,1,0,0,1,.346-.282,1.057,1.057,0,0,1,.47-.1,1.074,1.074,0,0,1,.466.1.964.964,0,0,1,.35.279,1.314,1.314,0,0,1,.216.436,1.99,1.99,0,0,1,.076.568,1.948,1.948,0,0,1-.076.564m.437-2.221a1.834,1.834,0,0,0-.663-.424,2.3,2.3,0,0,0-.807-.141,2.247,2.247,0,0,0-.792.141,1.868,1.868,0,0,0-.662.424,2.048,2.048,0,0,0-.455.7,2.527,2.527,0,0,0-.169.96,2.615,2.615,0,0,0,.163.96,1.969,1.969,0,0,0,.446.693,1.838,1.838,0,0,0,.662.421,2.291,2.291,0,0,0,.807.141,2.359,2.359,0,0,0,.822-.141,1.788,1.788,0,0,0,.659-.421,1.989,1.989,0,0,0,.436-.693,2.676,2.676,0,0,0,.158-.96,2.627,2.627,0,0,0-.162-.96,1.989,1.989,0,0,0-.445-.7" transform="translate(-2.753 -31.868)" fill="#808285"/>
    <path id="Path_105" data-name="Path 105" d="M-614.629,309.042c-.145-.221-.3-.451-.464-.691s-.33-.471-.5-.694-.331-.432-.49-.629-.307-.361-.44-.5h-.764v4.253h.927V308a14.68,14.68,0,0,1,1,1.343q.47.714.873,1.443h.789v-4.253h-.933Z" transform="translate(-4.994 -31.913)" fill="#808285"/>
    <path id="Path_106" data-name="Path 106" d="M-608.124,309.042c-.145-.221-.3-.451-.464-.691s-.331-.471-.5-.694-.331-.432-.491-.629-.307-.361-.44-.5h-.764v4.253h.927V308a14.81,14.81,0,0,1,1,1.343q.469.714.873,1.443h.789v-4.253h-.934Z" transform="translate(-7.056 -31.913)" fill="#808285"/>
    <path id="Path_107" data-name="Path 107" d="M-603.335,308.955h1.667v-.785h-1.667v-.834h1.876v-.8h-2.815v4.253h2.954v-.8h-2.016Z" transform="translate(-9.118 -31.913)" fill="#808285"/>
    <path id="Path_108" data-name="Path 108" d="M-596.313,309.819a1.588,1.588,0,0,1-.223.077,2.732,2.732,0,0,1-.289.057,2.457,2.457,0,0,1-.367.025,1.292,1.292,0,0,1-.554-.108.985.985,0,0,1-.37-.292,1.177,1.177,0,0,1-.2-.439,2.263,2.263,0,0,1-.064-.549,1.81,1.81,0,0,1,.1-.626,1.21,1.21,0,0,1,.255-.42.959.959,0,0,1,.367-.237,1.277,1.277,0,0,1,.424-.073,2.125,2.125,0,0,1,.581.073,2.279,2.279,0,0,1,.448.178l.271-.773c-.032-.021-.085-.049-.156-.085a1.783,1.783,0,0,0-.27-.108,3.128,3.128,0,0,0-.379-.092,2.671,2.671,0,0,0-.482-.04,2.4,2.4,0,0,0-.848.147,1.859,1.859,0,0,0-.674.433,2.034,2.034,0,0,0-.445.7,2.576,2.576,0,0,0-.162.943,2.325,2.325,0,0,0,.532,1.638,2,2,0,0,0,1.55.577,3.177,3.177,0,0,0,.837-.1,2.123,2.123,0,0,0,.559-.221l-.259-.767c-.052.025-.111.052-.174.081" transform="translate(-10.676 -31.868)" fill="#808285"/>
    <path id="Path_109" data-name="Path 109" d="M-593.887,307.348h1.257v3.437h.939v-3.437h1.257v-.816h-3.454Z" transform="translate(-12.41 -31.913)" fill="#808285"/>
    <path id="Path_110" data-name="Path 110" d="M-586.033,309.281a.586.586,0,0,0-.389.144.519.519,0,0,0-.172.421.518.518,0,0,0,.172.42.586.586,0,0,0,.389.144.585.585,0,0,0,.388-.144.519.519,0,0,0,.172-.42.519.519,0,0,0-.172-.421.585.585,0,0,0-.388-.144" transform="translate(-14.722 -32.785)" fill="#808285"/>
    <path id="Path_111" data-name="Path 111" d="M-579.408,309.819a1.588,1.588,0,0,1-.223.077,2.716,2.716,0,0,1-.288.057,2.474,2.474,0,0,1-.367.025,1.292,1.292,0,0,1-.554-.108.984.984,0,0,1-.37-.292,1.176,1.176,0,0,1-.2-.439,2.263,2.263,0,0,1-.064-.549,1.81,1.81,0,0,1,.1-.626,1.2,1.2,0,0,1,.255-.42.958.958,0,0,1,.367-.237,1.276,1.276,0,0,1,.424-.073,2.121,2.121,0,0,1,.581.073,2.277,2.277,0,0,1,.448.178l.271-.773c-.032-.021-.085-.049-.156-.085a1.784,1.784,0,0,0-.271-.108,3.123,3.123,0,0,0-.379-.092,2.67,2.67,0,0,0-.482-.04,2.4,2.4,0,0,0-.848.147,1.864,1.864,0,0,0-.674.433,2.033,2.033,0,0,0-.445.7,2.576,2.576,0,0,0-.162.943,2.329,2.329,0,0,0,.532,1.638,2,2,0,0,0,1.55.577,3.167,3.167,0,0,0,.836-.1,2.119,2.119,0,0,0,.559-.221l-.259-.767c-.052.025-.111.052-.174.081" transform="translate(-16.035 -31.868)" fill="#808285"/>
    <path id="Path_112" data-name="Path 112" d="M-574.014,309.174a1.31,1.31,0,0,1-.216.433.962.962,0,0,1-.349.279,1.075,1.075,0,0,1-.466.1,1.075,1.075,0,0,1-.471-.1.96.96,0,0,1-.345-.279,1.285,1.285,0,0,1-.217-.433,1.975,1.975,0,0,1-.074-.564,2,2,0,0,1,.074-.562,1.292,1.292,0,0,1,.217-.436,1,1,0,0,1,.345-.282,1.057,1.057,0,0,1,.471-.1,1.075,1.075,0,0,1,.466.1.962.962,0,0,1,.349.279,1.317,1.317,0,0,1,.216.436,2.015,2.015,0,0,1,.075.568,1.972,1.972,0,0,1-.075.564m.436-2.221a1.835,1.835,0,0,0-.663-.424,2.3,2.3,0,0,0-.805-.141,2.245,2.245,0,0,0-.792.141,1.861,1.861,0,0,0-.662.424,2.038,2.038,0,0,0-.454.7,2.528,2.528,0,0,0-.169.96,2.614,2.614,0,0,0,.163.96,1.959,1.959,0,0,0,.445.693,1.838,1.838,0,0,0,.662.421,2.286,2.286,0,0,0,.807.141,2.351,2.351,0,0,0,.821-.141,1.782,1.782,0,0,0,.659-.421,1.979,1.979,0,0,0,.436-.693,2.66,2.66,0,0,0,.159-.96,2.627,2.627,0,0,0-.162-.96,1.991,1.991,0,0,0-.445-.7" transform="translate(-17.724 -31.868)" fill="#808285"/>
    <path id="Path_113" data-name="Path 113" d="M-565.68,308.572q-.04-.568-.09-1.093t-.111-.948h-.855c-.072.135-.156.3-.251.5s-.193.413-.3.644-.2.468-.3.709-.2.468-.283.681l-.284-.681c-.1-.241-.2-.478-.3-.709s-.2-.446-.3-.644-.178-.365-.25-.5h-.9q-.06.424-.111.948t-.091,1.093q-.039.568-.072,1.138t-.057,1.074h.915c.012-.414.027-.863.048-1.35s.051-.977.09-1.473l.241.572q.134.312.263.626t.251.6c.081.191.149.353.2.489h.656c.056-.136.125-.3.206-.489s.164-.389.25-.6.174-.417.263-.626.169-.4.241-.572q.06.744.091,1.473t.048,1.35h.916c-.017-.335-.036-.693-.058-1.074s-.046-.759-.072-1.138" transform="translate(-19.908 -31.913)" fill="#808285"/>
    <path id="Path_114" data-name="Path 114" d="M-557.932,308.572q-.04-.568-.09-1.093t-.111-.948h-.855c-.072.135-.156.3-.25.5s-.193.413-.3.644-.2.468-.3.709l-.283.681-.283-.681c-.1-.241-.2-.478-.3-.709s-.2-.446-.3-.644-.178-.365-.25-.5h-.9q-.061.424-.112.948c-.034.35-.065.714-.09,1.093s-.05.757-.072,1.138-.042.739-.057,1.074h.915q.018-.621.048-1.35t.09-1.473l.242.572q.133.312.263.626c.086.209.17.408.251.6s.149.353.206.489h.656c.056-.136.125-.3.206-.489s.163-.389.25-.6.174-.417.262-.626.169-.4.242-.572q.061.744.091,1.473c.019.487.036.936.048,1.35h.915c-.016-.335-.035-.693-.058-1.074s-.045-.759-.072-1.138" transform="translate(-22.364 -31.913)" fill="#808285"/>
    <path id="Path_115" data-name="Path 115" d="M-552.177,309.1a1.013,1.013,0,0,1-.214.73.748.748,0,0,1-.557.214.926.926,0,0,1-.31-.049.554.554,0,0,1-.24-.162.815.815,0,0,1-.157-.3,1.479,1.479,0,0,1-.056-.438v-2.566h-.94v2.645a2.229,2.229,0,0,0,.1.684,1.425,1.425,0,0,0,.307.534,1.413,1.413,0,0,0,.527.35,2.06,2.06,0,0,0,.758.126,2.185,2.185,0,0,0,.77-.122,1.389,1.389,0,0,0,.536-.347,1.4,1.4,0,0,0,.313-.537,2.2,2.2,0,0,0,.1-.688v-2.645h-.939Z" transform="translate(-24.847 -31.913)" fill="#808285"/>
    <path id="Path_116" data-name="Path 116" d="M-545.834,309.042c-.146-.221-.3-.451-.464-.691s-.331-.471-.5-.694-.331-.432-.491-.629-.307-.361-.44-.5h-.764v4.253h.927V308a14.794,14.794,0,0,1,1,1.343q.47.714.873,1.443h.789v-4.253h-.933Z" transform="translate(-26.801 -31.913)" fill="#808285"/>
    <rect id="Rectangle_11" data-name="Rectangle 11" width="0.939" height="4.253" transform="translate(-570.847 274.618)" fill="#808285"/>
    <path id="Path_117" data-name="Path 117" d="M-536.577,309.819a1.588,1.588,0,0,1-.223.077,2.731,2.731,0,0,1-.289.057,2.467,2.467,0,0,1-.367.025,1.292,1.292,0,0,1-.554-.108.985.985,0,0,1-.37-.292,1.166,1.166,0,0,1-.2-.439,2.263,2.263,0,0,1-.064-.549,1.811,1.811,0,0,1,.1-.626,1.2,1.2,0,0,1,.256-.42.964.964,0,0,1,.367-.237,1.278,1.278,0,0,1,.425-.073,2.128,2.128,0,0,1,.581.073,2.278,2.278,0,0,1,.448.178l.272-.773c-.033-.021-.085-.049-.157-.085a1.784,1.784,0,0,0-.271-.108,3.109,3.109,0,0,0-.38-.092,2.658,2.658,0,0,0-.481-.04,2.4,2.4,0,0,0-.849.147,1.862,1.862,0,0,0-.675.433,2.033,2.033,0,0,0-.445.7,2.575,2.575,0,0,0-.163.943,2.329,2.329,0,0,0,.533,1.638,2,2,0,0,0,1.55.577,3.173,3.173,0,0,0,.837-.1,2.133,2.133,0,0,0,.56-.221l-.26-.767c-.052.025-.111.052-.174.081" transform="translate(-29.611 -31.868)" fill="#808285"/>
    <path id="Path_118" data-name="Path 118" d="M-532.681,309.1q.1-.276.195-.527c.063-.168.121-.321.173-.46s.1-.263.137-.368.071-.191.092-.252c.025.059.057.143.1.249l.141.369q.081.209.171.461c.06.168.122.344.186.528Zm1.869-.687q-.2-.516-.4-.979t-.406-.9h-.89q-.211.443-.408.9c-.131.309-.263.635-.4.979s-.273.71-.413,1.1-.29.813-.447,1.27h.975q.069-.22.148-.454c.053-.156.106-.311.158-.466h1.63c.053.154.107.309.159.464s.1.308.15.456h1.006q-.236-.686-.448-1.27t-.414-1.1" transform="translate(-31.338 -31.913)" fill="#808285"/>
    <path id="Path_119" data-name="Path 119" d="M-528.614,307.348h1.258v3.437h.94v-3.437h1.258v-.816h-3.456Z" transform="translate(-33.101 -31.913)" fill="#808285"/>
    <path id="Path_120" data-name="Path 120" d="M-521.893,308.955h1.668v-.785h-1.668v-.834h1.878v-.8h-2.817v4.253h2.956v-.8h-2.017Z" transform="translate(-34.934 -31.913)" fill="#808285"/>
    <path id="Path_121" data-name="Path 121" d="M-515.574,309.281a.589.589,0,0,0-.389.144.518.518,0,0,0-.171.421.518.518,0,0,0,.171.42.588.588,0,0,0,.389.144.589.589,0,0,0,.389-.144.516.516,0,0,0,.171-.42.516.516,0,0,0-.171-.421.589.589,0,0,0-.389-.144" transform="translate(-37.057 -32.785)" fill="#808285"/>
    <path id="Path_122" data-name="Path 122" d="M-508.945,309.819a1.588,1.588,0,0,1-.223.077,2.68,2.68,0,0,1-.29.057,2.454,2.454,0,0,1-.367.025,1.293,1.293,0,0,1-.553-.108.972.972,0,0,1-.37-.292,1.168,1.168,0,0,1-.206-.439,2.264,2.264,0,0,1-.063-.549,1.778,1.778,0,0,1,.1-.626,1.163,1.163,0,0,1,.256-.42.953.953,0,0,1,.367-.237,1.27,1.27,0,0,1,.423-.073,2.126,2.126,0,0,1,.581.073,2.282,2.282,0,0,1,.449.178l.271-.773c-.032-.021-.084-.049-.156-.085a1.738,1.738,0,0,0-.271-.108,3.041,3.041,0,0,0-.379-.092,2.665,2.665,0,0,0-.482-.04,2.4,2.4,0,0,0-.849.147,1.862,1.862,0,0,0-.673.433,2.034,2.034,0,0,0-.446.7,2.561,2.561,0,0,0-.163.943,2.326,2.326,0,0,0,.533,1.638,2,2,0,0,0,1.55.577,3.179,3.179,0,0,0,.837-.1,2.134,2.134,0,0,0,.56-.221l-.259-.767-.175.081" transform="translate(-38.37 -31.868)" fill="#808285"/>
    <path id="Path_123" data-name="Path 123" d="M-503.548,309.174a1.3,1.3,0,0,1-.217.433.945.945,0,0,1-.349.279,1.078,1.078,0,0,1-.467.1,1.069,1.069,0,0,1-.469-.1.959.959,0,0,1-.346-.279,1.3,1.3,0,0,1-.216-.433,1.948,1.948,0,0,1-.076-.564,1.97,1.97,0,0,1,.076-.562,1.3,1.3,0,0,1,.216-.436,1,1,0,0,1,.346-.282,1.051,1.051,0,0,1,.469-.1,1.079,1.079,0,0,1,.467.1.945.945,0,0,1,.349.279,1.3,1.3,0,0,1,.217.436,2.015,2.015,0,0,1,.075.568,1.972,1.972,0,0,1-.075.564m.436-2.221a1.838,1.838,0,0,0-.662-.424,2.306,2.306,0,0,0-.807-.141,2.244,2.244,0,0,0-.792.141,1.882,1.882,0,0,0-.663.424,2.059,2.059,0,0,0-.455.7,2.554,2.554,0,0,0-.168.96,2.615,2.615,0,0,0,.163.96,1.961,1.961,0,0,0,.446.693,1.827,1.827,0,0,0,.662.421,2.291,2.291,0,0,0,.807.141,2.349,2.349,0,0,0,.822-.141,1.777,1.777,0,0,0,.659-.421,1.98,1.98,0,0,0,.436-.693,2.659,2.659,0,0,0,.16-.96,2.613,2.613,0,0,0-.163-.96,1.99,1.99,0,0,0-.446-.7" transform="translate(-40.061 -31.868)" fill="#808285"/>
    <path id="Path_124" data-name="Path 124" d="M-498.651,306.531h-.939v4.253h2.788v-.822h-1.849Z" transform="translate(-42.301 -31.913)" fill="#808285"/>
    <path id="Path_125" data-name="Path 125" d="M-493.847,306.531h-.939v4.253H-492v-.822h-1.848Z" transform="translate(-43.824 -31.913)" fill="#808285"/>
    <g id="Group_49" data-name="Group 49" transform="translate(-535.564 274.521)">
      <path id="Path_126" data-name="Path 126" d="M-488.831,309.1q.1-.276.194-.527c.064-.168.121-.321.173-.46s.1-.263.138-.368.071-.191.092-.252c.025.059.058.143.1.249s.088.229.141.369.111.293.171.461.121.344.184.528Zm1.869-.687q-.2-.516-.4-.979t-.4-.9h-.891q-.21.443-.407.9t-.4.979q-.2.516-.414,1.1t-.447,1.27h.975q.069-.22.148-.454c.053-.156.107-.311.158-.466h1.63c.053.154.106.309.16.464s.1.308.15.456h1.005q-.236-.686-.448-1.27t-.414-1.1" transform="translate(490.326 -306.433)" fill="#808285"/>
      <path id="Path_127" data-name="Path 127" d="M-481.43,309.909a1.612,1.612,0,0,1-.68.122c-.1,0-.184,0-.265-.006s-.155-.01-.223-.018v-1.1h.591a1.245,1.245,0,0,1,.619.126.445.445,0,0,1,.217.42.456.456,0,0,1-.259.454m-1.169-2.657c.073-.009.155-.013.247-.016s.178,0,.259,0a1.216,1.216,0,0,1,.566.1.375.375,0,0,1,.192.362.394.394,0,0,1-.186.365,1.253,1.253,0,0,1-.62.114h-.458Zm1.692,1.209a.9.9,0,0,0,.482-.8,1.1,1.1,0,0,0-.135-.567,1.035,1.035,0,0,0-.377-.372,1.721,1.721,0,0,0-.574-.2,4.329,4.329,0,0,0-.732-.058q-.3,0-.638.027a6.052,6.052,0,0,0-.632.083v4.124a4.648,4.648,0,0,0,.707.1q.34.022.684.022a2.472,2.472,0,0,0,1.423-.337,1.151,1.151,0,0,0,.479-1.007,1.22,1.22,0,0,0-.144-.6.991.991,0,0,0-.542-.417" transform="translate(488.166 -306.411)" fill="#808285"/>
      <path id="Path_128" data-name="Path 128" d="M-474.9,309.174a1.3,1.3,0,0,1-.217.433.945.945,0,0,1-.349.279,1.078,1.078,0,0,1-.466.1,1.069,1.069,0,0,1-.469-.1.953.953,0,0,1-.346-.279,1.3,1.3,0,0,1-.217-.433,1.948,1.948,0,0,1-.076-.564,1.97,1.97,0,0,1,.076-.562,1.3,1.3,0,0,1,.217-.436.992.992,0,0,1,.346-.282,1.051,1.051,0,0,1,.469-.1,1.078,1.078,0,0,1,.466.1.945.945,0,0,1,.349.279,1.3,1.3,0,0,1,.217.436,2.016,2.016,0,0,1,.075.568,1.973,1.973,0,0,1-.075.564m.436-2.221a1.838,1.838,0,0,0-.662-.424,2.306,2.306,0,0,0-.807-.141,2.244,2.244,0,0,0-.792.141,1.883,1.883,0,0,0-.663.424,2.059,2.059,0,0,0-.455.7,2.554,2.554,0,0,0-.168.96,2.629,2.629,0,0,0,.162.96,1.972,1.972,0,0,0,.447.693,1.833,1.833,0,0,0,.662.421,2.291,2.291,0,0,0,.807.141,2.349,2.349,0,0,0,.822-.141,1.777,1.777,0,0,0,.659-.421,1.98,1.98,0,0,0,.436-.693,2.66,2.66,0,0,0,.16-.96,2.612,2.612,0,0,0-.163-.96,1.991,1.991,0,0,0-.446-.7" transform="translate(486.423 -306.388)" fill="#808285"/>
      <path id="Path_129" data-name="Path 129" d="M-468.982,308.313a1.571,1.571,0,0,1-.758.135H-470v-1.154l.154-.012c.054,0,.115-.007.184-.007a1.407,1.407,0,0,1,.683.133.471.471,0,0,1,.232.445.489.489,0,0,1-.229.46m.955,1.507c-.091-.15-.182-.293-.274-.43s-.181-.258-.265-.365a1.321,1.321,0,0,0,.581-.438,1.214,1.214,0,0,0,.2-.727,1.194,1.194,0,0,0-.5-1.059,2.553,2.553,0,0,0-1.44-.34c-.172,0-.368.008-.587.025a5.212,5.212,0,0,0-.635.086v4.191H-470v-1.553h.464c.081.1.161.208.242.329s.162.249.245.383.163.274.242.417.156.285.233.423h1.05c-.073-.156-.151-.314-.235-.476s-.171-.317-.262-.466" transform="translate(484.182 -306.411)" fill="#808285"/>
      <path id="Path_130" data-name="Path 130" d="M-464.073,309.1q.1-.276.195-.527c.064-.168.121-.321.173-.46s.1-.263.138-.368.071-.191.092-.252c.025.059.058.143.1.249s.088.229.141.369.111.293.171.461.122.344.185.528Zm1.869-.687q-.2-.516-.4-.979t-.405-.9h-.891c-.14.3-.277.6-.407.9s-.264.635-.4.979-.272.71-.413,1.1-.29.813-.447,1.27h.975q.069-.22.148-.454c.053-.156.107-.311.158-.466h1.63l.16.464q.08.235.15.456h1.006q-.236-.686-.448-1.27t-.414-1.1" transform="translate(482.478 -306.433)" fill="#808285"/>
    </g>
    <path id="Path_131" data-name="Path 131" d="M-460.006,307.348h1.258v3.437h.939v-3.437h1.258v-.816h-3.455Z" transform="translate(-54.849 -31.913)" fill="#808285"/>
    <path id="Path_132" data-name="Path 132" d="M-453.285,308.955h1.668v-.785h-1.668v-.834h1.878v-.8h-2.817v4.253h2.956v-.8h-2.017Z" transform="translate(-56.682 -31.913)" fill="#808285"/>
    <path id="Path_133" data-name="Path 133" d="M-560.862,275.178v-1.217a1.394,1.394,0,0,0-.409-1,1.361,1.361,0,0,0-1-.421h-11.087v-15a1.412,1.412,0,0,0-.413-1.029,1.36,1.36,0,0,0-1-.419H-577.2a1.368,1.368,0,0,0-1,.418,1.4,1.4,0,0,0-.419,1.03V275.2a1.306,1.306,0,0,0,.422.988,1.407,1.407,0,0,0,1,.4h14.932a1.374,1.374,0,0,0,1-.413,1.37,1.37,0,0,0,.41-1" transform="translate(-17.248 -15.924)" fill="#808285"/>
    <path id="Path_134" data-name="Path 134" d="M-545.539,264.674h-2.9a.963.963,0,0,0-.7.275.94.94,0,0,0-.286.7v12.677a.957.957,0,0,0,.277.7.968.968,0,0,0,.706.275h2.9a.966.966,0,0,0,.7-.273.941.941,0,0,0,.287-.707V265.653a.967.967,0,0,0-.275-.695.955.955,0,0,0-.708-.284" transform="translate(-26.505 -18.645)" fill="#808285"/>
    <path id="Path_135" data-name="Path 135" d="M-522.687,264.752h-2.5a2.115,2.115,0,0,0-1.154.349,1.956,1.956,0,0,0-.771.907l-3.346,7.665-3.358-7.662a1.975,1.975,0,0,0-.773-.911,2.11,2.11,0,0,0-1.154-.348h-2.487a.754.754,0,0,0-.768.443.84.84,0,0,0-.083.385,1.443,1.443,0,0,0,.145.587l5.6,11.916a2.125,2.125,0,0,0,.8.9,2.038,2.038,0,0,0,1.126.35h1.908a2.083,2.083,0,0,0,1.131-.348,2.092,2.092,0,0,0,.8-.9l5.6-11.924a1.478,1.478,0,0,0,.13-.568.744.744,0,0,0-.066-.386.76.76,0,0,0-.773-.455" transform="translate(-29.783 -18.669)" fill="#808285"/>
    <path id="Path_136" data-name="Path 136" d="M-509.651,264.674a.969.969,0,0,0-.7.275.942.942,0,0,0-.286.7v12.677a.958.958,0,0,0,.277.7.967.967,0,0,0,.707.275h2.9a.963.963,0,0,0,.7-.273.937.937,0,0,0,.288-.707V265.653a.956.956,0,0,0-.277-.695.952.952,0,0,0-.707-.284Z" transform="translate(-38.8 -18.645)" fill="#808285"/>
    <path id="Path_137" data-name="Path 137" d="M-487.932,278.23a.969.969,0,0,0,.275.7.935.935,0,0,0,.707.286h2.888a.988.988,0,0,0,.712-.275.952.952,0,0,0,.284-.709V270.8a6.481,6.481,0,0,0-1.639-4.833,6.139,6.139,0,0,0-4.448-1.59,7.027,7.027,0,0,0-4.339,1.667v-.412a.983.983,0,0,0-.275-.71.954.954,0,0,0-.71-.286h-2.9a.961.961,0,0,0-.7.283.966.966,0,0,0-.283.713v12.6a.96.96,0,0,0,.277.707.969.969,0,0,0,.707.277h2.9a.973.973,0,0,0,.7-.275.953.953,0,0,0,.285-.709v-8.6a4.955,4.955,0,0,1,3.3-1.74c1.521,0,2.26.951,2.26,2.9Z" transform="translate(-42.691 -18.549)" fill="#808285"/>
    <path id="Path_138" data-name="Path 138" d="M-461.794,274.259a11.551,11.551,0,0,1-2.626.347c-1.888,0-2.806-1.081-2.806-3.3,0-2.294.936-3.409,2.862-3.409h.163a10.461,10.461,0,0,1,2.407.242Zm4.771-8.408a10.484,10.484,0,0,0-3.106-1.052,19.358,19.358,0,0,0-3.939-.425A8.8,8.8,0,0,0-470,266.183a6.446,6.446,0,0,0-2.093,5.119,6.776,6.776,0,0,0,1.827,4.991,6.477,6.477,0,0,0,4.784,1.832,15.806,15.806,0,0,0,3.689-.477v.362a2.571,2.571,0,0,1-.608,1.967,3.219,3.219,0,0,1-2.115.547,3.318,3.318,0,0,1-2.635-.81,2.023,2.023,0,0,0-1.64-.757h-1.928a.968.968,0,0,0-.714.284.968.968,0,0,0-.283.712,3.118,3.118,0,0,0,1.971,3.017,13.755,13.755,0,0,0,5.554.879,8.875,8.875,0,0,0,5.282-1.415,5.123,5.123,0,0,0,1.983-4.425v-12.1Z" transform="translate(-51.017 -18.55)" fill="#808285"/>
    <path id="Path_139" data-name="Path 139" d="M-547.072,254.077a2.615,2.615,0,0,0-2.615,2.614,2.6,2.6,0,0,0,.581,1.64,2.609,2.609,0,0,0,2.034.974,2.609,2.609,0,0,0,2.033-.974,2.6,2.6,0,0,0,.581-1.64,2.614,2.614,0,0,0-2.614-2.614" transform="translate(-26.421 -15.286)" fill="#808285"/>
    <path id="Path_140" data-name="Path 140" d="M-508.284,259.3a2.607,2.607,0,0,0,2.033-.974,2.6,2.6,0,0,0,.581-1.64,2.614,2.614,0,0,0-2.614-2.614,2.615,2.615,0,0,0-2.615,2.614,2.6,2.6,0,0,0,.581,1.64,2.607,2.607,0,0,0,2.034.974" transform="translate(-38.716 -15.286)" fill="#808285"/>
  </g>
</svg>
