<svg xmlns="http://www.w3.org/2000/svg" width="255.008" height="149.023" viewBox="0 0 255.008 149.023">
  <g id="Group_51" data-name="Group 51" transform="translate(633.037 -205.856)">
    <path id="Path_100" data-name="Path 100" d="M-552.091,207.717H-608.9v64.017a15.978,15.978,0,0,1,9.458-3.123,16.009,16.009,0,0,1,9.489,3.117V226.66h33.974a5.685,5.685,0,0,1,5.688,5.681,5.688,5.688,0,0,1-5.688,5.686h-17.137a9.444,9.444,0,0,0-9.366,9.469,9.448,9.448,0,0,0,9.366,9.471h17.137a24.675,24.675,0,0,0,24.623-24.627c0-12.26-8.968-24.624-20.737-24.624" transform="translate(9.471 0.73)" fill="#fff"/>
    <path id="Path_101" data-name="Path 101" d="M-590.9,267.5a9.446,9.446,0,0,0-9.459,9.255c0,.039-.017.077-.017.12V294.02a5.676,5.676,0,0,1-5.68,5.681h0a5.184,5.184,0,0,1-5.385-5.384V227.355a19.424,19.424,0,0,1-9.62,2.559,19.437,19.437,0,0,1-9.618-2.558v70.553a17.1,17.1,0,0,0,2.128,8.2c4.051,7.487,13.3,12.533,22.5,12.533a24.46,24.46,0,0,0,6.107-.8,24.5,24.5,0,0,0,8.52-4.077,24.749,24.749,0,0,0,8.883-12.438,24.671,24.671,0,0,0,1.108-7.309V276.875A9.45,9.45,0,0,0-590.9,267.5" transform="translate(0.927 8.436)" fill="#fff"/>
    <path id="Path_102" data-name="Path 102" d="M-620.128,231.673a12.881,12.881,0,0,0,10.045-4.806,12.876,12.876,0,0,0,2.861-8.1,12.906,12.906,0,0,0-12.906-12.907,12.909,12.909,0,0,0-12.909,12.907,12.869,12.869,0,0,0,2.864,8.1,12.875,12.875,0,0,0,10.044,4.806" transform="translate(0 0)" fill="#fff"/>
    <path id="Path_103" data-name="Path 103" d="M-623.475,313.382a3.239,3.239,0,0,1-.454.157,5.566,5.566,0,0,1-.589.117,5.027,5.027,0,0,1-.749.052,2.634,2.634,0,0,1-1.129-.22,2.006,2.006,0,0,1-.755-.595,2.376,2.376,0,0,1-.416-.894,4.613,4.613,0,0,1-.13-1.119,3.689,3.689,0,0,1,.2-1.277,2.449,2.449,0,0,1,.522-.856,1.966,1.966,0,0,1,.749-.483,2.6,2.6,0,0,1,.866-.149,4.338,4.338,0,0,1,1.183.149,4.645,4.645,0,0,1,.913.363l.554-1.576c-.067-.042-.173-.1-.32-.174a3.642,3.642,0,0,0-.551-.22,6.331,6.331,0,0,0-.774-.187,5.411,5.411,0,0,0-.98-.082,4.891,4.891,0,0,0-1.731.3,3.794,3.794,0,0,0-1.375.883,4.144,4.144,0,0,0-.908,1.426,5.252,5.252,0,0,0-.331,1.921,4.747,4.747,0,0,0,1.086,3.339,4.084,4.084,0,0,0,3.161,1.177,6.468,6.468,0,0,0,1.706-.2,4.347,4.347,0,0,0,1.142-.451l-.529-1.564c-.106.052-.225.106-.355.164" transform="translate(1.315 39.446)" fill="#fff"/>
    <path id="Path_104" data-name="Path 104" d="M-618.014,312.068a2.665,2.665,0,0,1-.44.883,1.965,1.965,0,0,1-.713.568,2.187,2.187,0,0,1-.951.2,2.189,2.189,0,0,1-.958-.2,1.962,1.962,0,0,1-.7-.568,2.617,2.617,0,0,1-.441-.883,3.973,3.973,0,0,1-.153-1.15,4.017,4.017,0,0,1,.153-1.146,2.633,2.633,0,0,1,.441-.888,2.043,2.043,0,0,1,.7-.575,2.155,2.155,0,0,1,.958-.206,2.188,2.188,0,0,1,.951.2,1.966,1.966,0,0,1,.713.568,2.68,2.68,0,0,1,.44.888,4.058,4.058,0,0,1,.155,1.158,3.971,3.971,0,0,1-.155,1.15m.891-4.528a3.739,3.739,0,0,0-1.351-.865,4.688,4.688,0,0,0-1.644-.287,4.579,4.579,0,0,0-1.614.287,3.808,3.808,0,0,0-1.349.865,4.177,4.177,0,0,0-.927,1.42,5.155,5.155,0,0,0-.344,1.958,5.329,5.329,0,0,0,.331,1.958,4.015,4.015,0,0,0,.909,1.412,3.748,3.748,0,0,0,1.349.858,4.67,4.67,0,0,0,1.644.288,4.81,4.81,0,0,0,1.677-.288,3.645,3.645,0,0,0,1.344-.858,4.055,4.055,0,0,0,.89-1.412,5.456,5.456,0,0,0,.323-1.958,5.357,5.357,0,0,0-.33-1.958,4.054,4.054,0,0,0-.908-1.42" transform="translate(3.408 39.446)" fill="#fff"/>
    <path id="Path_105" data-name="Path 105" d="M-611.872,311.649c-.3-.45-.61-.92-.946-1.408s-.673-.959-1.012-1.415-.674-.881-1-1.282-.625-.737-.9-1.014h-1.558v8.67h1.89v-5.68a29.921,29.921,0,0,1,2.037,2.739q.959,1.456,1.779,2.941h1.608v-8.67h-1.9Z" transform="translate(6.181 39.502)" fill="#fff"/>
    <path id="Path_106" data-name="Path 106" d="M-605.367,311.649c-.3-.45-.611-.92-.945-1.408s-.674-.959-1.011-1.415-.674-.881-1-1.282-.627-.737-.9-1.014h-1.558v8.67h1.89v-5.68a30.194,30.194,0,0,1,2.038,2.739q.957,1.456,1.779,2.941h1.608v-8.67h-1.9Z" transform="translate(8.733 39.502)" fill="#fff"/>
    <path id="Path_107" data-name="Path 107" d="M-602.36,311.473h3.4v-1.6h-3.4v-1.7h3.825v-1.64h-5.738v8.67h6.022v-1.639h-4.109Z" transform="translate(11.286 39.502)" fill="#fff"/>
    <path id="Path_108" data-name="Path 108" d="M-593.151,313.382a3.243,3.243,0,0,1-.454.157,5.58,5.58,0,0,1-.589.117,5.008,5.008,0,0,1-.748.052,2.634,2.634,0,0,1-1.129-.22,2.007,2.007,0,0,1-.755-.595,2.4,2.4,0,0,1-.416-.894,4.613,4.613,0,0,1-.13-1.119,3.69,3.69,0,0,1,.2-1.277,2.464,2.464,0,0,1,.521-.856,1.956,1.956,0,0,1,.749-.483,2.6,2.6,0,0,1,.865-.149,4.331,4.331,0,0,1,1.184.149,4.649,4.649,0,0,1,.914.363l.553-1.576c-.065-.042-.173-.1-.319-.174a3.639,3.639,0,0,0-.551-.22,6.375,6.375,0,0,0-.773-.187,5.441,5.441,0,0,0-.982-.082,4.888,4.888,0,0,0-1.729.3,3.789,3.789,0,0,0-1.374.883,4.145,4.145,0,0,0-.908,1.426,5.251,5.251,0,0,0-.33,1.921,4.741,4.741,0,0,0,1.085,3.339,4.081,4.081,0,0,0,3.159,1.177,6.476,6.476,0,0,0,1.706-.2,4.328,4.328,0,0,0,1.139-.451l-.528-1.564c-.106.052-.226.106-.355.164" transform="translate(13.215 39.446)" fill="#fff"/>
    <path id="Path_109" data-name="Path 109" d="M-593.887,308.2h2.563V315.2h1.914V308.2h2.563v-1.664h-7.041Z" transform="translate(15.361 39.502)" fill="#fff"/>
    <path id="Path_110" data-name="Path 110" d="M-585.451,309.281a1.194,1.194,0,0,0-.792.294,1.057,1.057,0,0,0-.35.858,1.056,1.056,0,0,0,.35.856,1.194,1.194,0,0,0,.792.294,1.193,1.193,0,0,0,.791-.294,1.057,1.057,0,0,0,.351-.856,1.058,1.058,0,0,0-.351-.858,1.194,1.194,0,0,0-.791-.294" transform="translate(18.223 40.581)" fill="#fff"/>
    <path id="Path_111" data-name="Path 111" d="M-576.246,313.382a3.245,3.245,0,0,1-.454.157,5.554,5.554,0,0,1-.588.117,5.043,5.043,0,0,1-.749.052,2.634,2.634,0,0,1-1.129-.22,2,2,0,0,1-.755-.595,2.4,2.4,0,0,1-.416-.894,4.613,4.613,0,0,1-.13-1.119,3.689,3.689,0,0,1,.2-1.277,2.445,2.445,0,0,1,.521-.856,1.954,1.954,0,0,1,.749-.483,2.6,2.6,0,0,1,.865-.149,4.322,4.322,0,0,1,1.183.149,4.643,4.643,0,0,1,.914.363l.553-1.576c-.066-.042-.173-.1-.319-.174a3.635,3.635,0,0,0-.552-.22,6.356,6.356,0,0,0-.773-.187,5.44,5.44,0,0,0-.982-.082,4.887,4.887,0,0,0-1.729.3,3.8,3.8,0,0,0-1.374.883,4.144,4.144,0,0,0-.908,1.426,5.252,5.252,0,0,0-.33,1.921,4.747,4.747,0,0,0,1.085,3.339,4.081,4.081,0,0,0,3.159,1.177,6.456,6.456,0,0,0,1.7-.2,4.319,4.319,0,0,0,1.14-.451l-.528-1.564c-.106.052-.226.106-.355.164" transform="translate(19.848 39.446)" fill="#fff"/>
    <path id="Path_112" data-name="Path 112" d="M-570.787,312.068a2.669,2.669,0,0,1-.441.883,1.961,1.961,0,0,1-.712.568,2.189,2.189,0,0,1-.949.2,2.192,2.192,0,0,1-.96-.2,1.956,1.956,0,0,1-.7-.568,2.618,2.618,0,0,1-.443-.883,4.024,4.024,0,0,1-.152-1.15,4.069,4.069,0,0,1,.152-1.146,2.634,2.634,0,0,1,.443-.888,2.038,2.038,0,0,1,.7-.575,2.157,2.157,0,0,1,.96-.206,2.191,2.191,0,0,1,.949.2,1.962,1.962,0,0,1,.712.568,2.685,2.685,0,0,1,.441.888,4.107,4.107,0,0,1,.153,1.158,4.02,4.02,0,0,1-.153,1.15m.89-4.528a3.741,3.741,0,0,0-1.351-.865,4.677,4.677,0,0,0-1.641-.287,4.577,4.577,0,0,0-1.614.287,3.8,3.8,0,0,0-1.349.865,4.156,4.156,0,0,0-.926,1.42,5.154,5.154,0,0,0-.344,1.958,5.328,5.328,0,0,0,.331,1.958,3.992,3.992,0,0,0,.908,1.412,3.748,3.748,0,0,0,1.349.858,4.66,4.66,0,0,0,1.645.288,4.794,4.794,0,0,0,1.674-.288,3.633,3.633,0,0,0,1.344-.858,4.035,4.035,0,0,0,.888-1.412,5.421,5.421,0,0,0,.324-1.958,5.356,5.356,0,0,0-.33-1.958,4.059,4.059,0,0,0-.908-1.42" transform="translate(21.94 39.446)" fill="#fff"/>
    <path id="Path_113" data-name="Path 113" d="M-560.95,310.691q-.081-1.157-.184-2.228t-.227-1.933H-563.1c-.148.276-.318.617-.511,1.021s-.394.842-.6,1.313-.416.954-.621,1.445-.4.954-.578,1.388L-566,310.31c-.2-.491-.412-.975-.621-1.445s-.411-.909-.6-1.313-.362-.745-.509-1.021h-1.828q-.123.865-.225,1.933t-.185,2.228q-.079,1.157-.148,2.32t-.117,2.19h1.866c.025-.844.056-1.76.1-2.753s.1-1.992.184-3l.492,1.165q.274.637.536,1.275t.512,1.218c.164.39.3.72.418,1h1.338c.114-.277.255-.607.419-1s.334-.792.51-1.218.355-.851.536-1.275.345-.813.492-1.165q.123,1.516.185,3t.1,2.753h1.867c-.035-.684-.072-1.413-.118-2.19s-.093-1.548-.146-2.32" transform="translate(24.642 39.502)" fill="#fff"/>
    <path id="Path_114" data-name="Path 114" d="M-553.2,310.691q-.081-1.157-.184-2.228t-.227-1.933h-1.743c-.146.276-.317.617-.509,1.021s-.394.842-.6,1.313-.416.954-.621,1.445l-.578,1.388-.578-1.388c-.206-.491-.414-.975-.621-1.445s-.412-.909-.6-1.313-.363-.745-.51-1.021h-1.828q-.125.865-.228,1.933c-.07.714-.132,1.456-.184,2.228s-.1,1.544-.148,2.32-.085,1.507-.116,2.19h1.865q.037-1.266.1-2.753t.184-3c.149.352.313.739.493,1.165s.359.849.536,1.275.347.833.511,1.218.3.72.419,1h1.338c.114-.277.255-.607.419-1s.333-.792.51-1.218.355-.851.535-1.275.345-.813.493-1.165q.123,1.516.185,3c.039.993.074,1.909.1,2.753h1.866c-.033-.684-.071-1.413-.118-2.19s-.092-1.548-.146-2.32" transform="translate(27.682 39.502)" fill="#fff"/>
    <path id="Path_115" data-name="Path 115" d="M-549.608,311.762a2.065,2.065,0,0,1-.436,1.488,1.525,1.525,0,0,1-1.135.437,1.887,1.887,0,0,1-.632-.1,1.129,1.129,0,0,1-.49-.33,1.66,1.66,0,0,1-.32-.6,3.014,3.014,0,0,1-.114-.893v-5.231h-1.916v5.393a4.543,4.543,0,0,0,.2,1.4,2.905,2.905,0,0,0,.627,1.089,2.879,2.879,0,0,0,1.075.713,4.2,4.2,0,0,0,1.546.256,4.453,4.453,0,0,0,1.569-.249,2.832,2.832,0,0,0,1.093-.707,2.856,2.856,0,0,0,.638-1.094,4.489,4.489,0,0,0,.209-1.4v-5.393h-1.915Z" transform="translate(30.756 39.502)" fill="#fff"/>
    <path id="Path_116" data-name="Path 116" d="M-543.077,311.649c-.3-.45-.611-.92-.945-1.408s-.674-.959-1.012-1.415-.674-.881-1-1.282-.625-.737-.9-1.014h-1.557v8.67h1.889v-5.68a30.15,30.15,0,0,1,2.037,2.739q.959,1.456,1.78,2.941h1.608v-8.67h-1.9Z" transform="translate(33.174 39.502)" fill="#fff"/>
    <rect id="Rectangle_11" data-name="Rectangle 11" width="1.915" height="8.67" transform="translate(-506.258 346.033)" fill="#fff"/>
    <path id="Path_117" data-name="Path 117" d="M-533.413,313.382a3.244,3.244,0,0,1-.454.157,5.571,5.571,0,0,1-.589.117,5.029,5.029,0,0,1-.749.052,2.634,2.634,0,0,1-1.129-.22,2.007,2.007,0,0,1-.755-.595,2.375,2.375,0,0,1-.416-.894,4.613,4.613,0,0,1-.13-1.119,3.692,3.692,0,0,1,.2-1.277,2.448,2.448,0,0,1,.522-.856,1.966,1.966,0,0,1,.749-.483,2.6,2.6,0,0,1,.866-.149,4.337,4.337,0,0,1,1.184.149,4.647,4.647,0,0,1,.913.363l.554-1.576c-.067-.042-.173-.1-.32-.174a3.642,3.642,0,0,0-.551-.22,6.336,6.336,0,0,0-.774-.187,5.415,5.415,0,0,0-.98-.082,4.89,4.89,0,0,0-1.731.3,3.794,3.794,0,0,0-1.376.883,4.144,4.144,0,0,0-.908,1.426,5.252,5.252,0,0,0-.331,1.921,4.747,4.747,0,0,0,1.086,3.339,4.084,4.084,0,0,0,3.161,1.177,6.468,6.468,0,0,0,1.706-.2,4.346,4.346,0,0,0,1.142-.451l-.529-1.564c-.106.052-.226.106-.355.164" transform="translate(36.653 39.446)" fill="#fff"/>
    <path id="Path_118" data-name="Path 118" d="M-531.128,311.773q.2-.562.4-1.074c.129-.342.246-.654.352-.938s.2-.536.28-.75.145-.39.188-.514c.052.121.117.292.2.508s.178.466.288.752.226.6.348.94.248.7.379,1.076Zm3.811-1.4q-.416-1.053-.82-2t-.827-1.845h-1.814q-.43.9-.831,1.845c-.267.631-.536,1.295-.813,2s-.556,1.448-.841,2.239-.592,1.657-.911,2.59h1.987q.14-.449.3-.926c.107-.317.216-.634.323-.95h3.322c.107.315.217.629.324.947s.21.628.306.929h2.051q-.48-1.4-.913-2.59t-.844-2.239" transform="translate(38.791 39.502)" fill="#fff"/>
    <path id="Path_119" data-name="Path 119" d="M-528.614,308.2h2.565V315.2h1.916V308.2h2.565v-1.664h-7.045Z" transform="translate(40.973 39.502)" fill="#fff"/>
    <path id="Path_120" data-name="Path 120" d="M-520.918,311.473h3.4v-1.6h-3.4v-1.7h3.829v-1.64h-5.744v8.67h6.026v-1.639h-4.112Z" transform="translate(43.241 39.502)" fill="#fff"/>
    <path id="Path_121" data-name="Path 121" d="M-514.993,309.281a1.2,1.2,0,0,0-.792.294,1.057,1.057,0,0,0-.348.858,1.055,1.055,0,0,0,.348.856,1.2,1.2,0,0,0,.792.294,1.2,1.2,0,0,0,.792-.294,1.051,1.051,0,0,0,.348-.856,1.053,1.053,0,0,0-.348-.858,1.2,1.2,0,0,0-.792-.294" transform="translate(45.87 40.581)" fill="#fff"/>
    <path id="Path_122" data-name="Path 122" d="M-505.781,313.382a3.239,3.239,0,0,1-.454.157,5.467,5.467,0,0,1-.59.117,5,5,0,0,1-.749.052,2.637,2.637,0,0,1-1.128-.22,1.98,1.98,0,0,1-.753-.595,2.382,2.382,0,0,1-.419-.894A4.616,4.616,0,0,1-510,310.88a3.627,3.627,0,0,1,.2-1.277,2.37,2.37,0,0,1,.522-.856,1.944,1.944,0,0,1,.749-.483,2.588,2.588,0,0,1,.863-.149,4.334,4.334,0,0,1,1.185.149,4.655,4.655,0,0,1,.915.363l.551-1.576c-.065-.042-.171-.1-.319-.174a3.544,3.544,0,0,0-.553-.22,6.2,6.2,0,0,0-.773-.187,5.43,5.43,0,0,0-.982-.082,4.9,4.9,0,0,0-1.731.3,3.8,3.8,0,0,0-1.373.883A4.146,4.146,0,0,0-511.66,309a5.222,5.222,0,0,0-.331,1.921,4.742,4.742,0,0,0,1.086,3.339,4.083,4.083,0,0,0,3.159,1.177,6.48,6.48,0,0,0,1.707-.2,4.353,4.353,0,0,0,1.142-.451l-.528-1.564c-.109.052-.226.106-.357.164" transform="translate(47.495 39.446)" fill="#fff"/>
    <path id="Path_123" data-name="Path 123" d="M-500.319,312.068a2.644,2.644,0,0,1-.443.883,1.928,1.928,0,0,1-.712.568,2.2,2.2,0,0,1-.951.2,2.177,2.177,0,0,1-.957-.2,1.953,1.953,0,0,1-.706-.568,2.64,2.64,0,0,1-.441-.883,3.97,3.97,0,0,1-.155-1.15,4.015,4.015,0,0,1,.155-1.146,2.657,2.657,0,0,1,.441-.888,2.034,2.034,0,0,1,.706-.575,2.143,2.143,0,0,1,.957-.206,2.2,2.2,0,0,1,.951.2,1.928,1.928,0,0,1,.712.568,2.66,2.66,0,0,1,.443.888,4.107,4.107,0,0,1,.153,1.158,4.02,4.02,0,0,1-.153,1.15m.888-4.528a3.747,3.747,0,0,0-1.349-.865,4.7,4.7,0,0,0-1.644-.287,4.575,4.575,0,0,0-1.614.287,3.838,3.838,0,0,0-1.351.865,4.2,4.2,0,0,0-.927,1.42,5.207,5.207,0,0,0-.342,1.958,5.33,5.33,0,0,0,.331,1.958,4,4,0,0,0,.909,1.412,3.725,3.725,0,0,0,1.349.858,4.67,4.67,0,0,0,1.644.288,4.789,4.789,0,0,0,1.675-.288,3.622,3.622,0,0,0,1.344-.858,4.034,4.034,0,0,0,.89-1.412,5.419,5.419,0,0,0,.326-1.958,5.325,5.325,0,0,0-.331-1.958,4.057,4.057,0,0,0-.909-1.42" transform="translate(49.588 39.446)" fill="#fff"/>
    <path id="Path_124" data-name="Path 124" d="M-497.676,306.531h-1.915v8.67h5.684v-1.677h-3.769Z" transform="translate(52.361 39.502)" fill="#fff"/>
    <path id="Path_125" data-name="Path 125" d="M-492.872,306.531h-1.915v8.67h5.682v-1.677h-3.768Z" transform="translate(54.246 39.502)" fill="#fff"/>
    <g id="Group_49" data-name="Group 49" transform="translate(-434.33 345.834)">
      <path id="Path_126" data-name="Path 126" d="M-487.278,311.773q.2-.562.4-1.074c.13-.342.246-.654.352-.938s.2-.536.281-.75.145-.39.188-.514c.05.121.118.292.2.508s.18.466.288.752.227.6.349.94.246.7.376,1.076Zm3.81-1.4q-.411-1.053-.82-2t-.824-1.845h-1.817q-.428.9-.83,1.845t-.812,2q-.414,1.053-.844,2.239t-.911,2.59h1.988q.14-.449.3-.926c.109-.317.217-.634.323-.95h3.322c.109.315.216.629.326.947s.21.628.3.929h2.05q-.48-1.4-.913-2.59t-.844-2.239" transform="translate(490.326 -306.332)" fill="#fff"/>
      <path id="Path_127" data-name="Path 127" d="M-479.266,313.49a3.285,3.285,0,0,1-1.387.249c-.2,0-.376,0-.54-.012s-.316-.019-.455-.036v-2.239h1.2a2.539,2.539,0,0,1,1.263.256.908.908,0,0,1,.443.856.929.929,0,0,1-.528.926m-2.382-5.416c.149-.018.316-.026.5-.032s.363-.006.528-.006a2.479,2.479,0,0,1,1.154.213.765.765,0,0,1,.391.738.8.8,0,0,1-.379.744,2.555,2.555,0,0,1-1.264.233h-.934Zm3.449,2.465a1.842,1.842,0,0,0,.983-1.64,2.248,2.248,0,0,0-.276-1.156,2.111,2.111,0,0,0-.769-.757,3.508,3.508,0,0,0-1.171-.407,8.828,8.828,0,0,0-1.491-.118q-.6,0-1.3.056a12.346,12.346,0,0,0-1.289.169v8.407a9.478,9.478,0,0,0,1.441.206q.693.044,1.394.045a5.04,5.04,0,0,0,2.9-.688,2.346,2.346,0,0,0,.976-2.052,2.487,2.487,0,0,0-.294-1.214,2.02,2.02,0,0,0-1.106-.849" transform="translate(492.999 -306.36)" fill="#fff"/>
      <path id="Path_128" data-name="Path 128" d="M-471.674,312.068a2.641,2.641,0,0,1-.443.883,1.926,1.926,0,0,1-.711.568,2.2,2.2,0,0,1-.951.2,2.178,2.178,0,0,1-.957-.2,1.942,1.942,0,0,1-.706-.568,2.64,2.64,0,0,1-.441-.883,3.97,3.97,0,0,1-.155-1.15,4.015,4.015,0,0,1,.155-1.146,2.657,2.657,0,0,1,.441-.888,2.022,2.022,0,0,1,.706-.575,2.144,2.144,0,0,1,.957-.206,2.2,2.2,0,0,1,.951.2,1.927,1.927,0,0,1,.711.568,2.657,2.657,0,0,1,.443.888,4.1,4.1,0,0,1,.153,1.158,4.017,4.017,0,0,1-.153,1.15m.888-4.528a3.748,3.748,0,0,0-1.349-.865,4.7,4.7,0,0,0-1.644-.287,4.575,4.575,0,0,0-1.614.287,3.837,3.837,0,0,0-1.351.865,4.2,4.2,0,0,0-.927,1.42,5.209,5.209,0,0,0-.343,1.958,5.36,5.36,0,0,0,.33,1.958,4.021,4.021,0,0,0,.911,1.412,3.737,3.737,0,0,0,1.349.858,4.67,4.67,0,0,0,1.644.288,4.79,4.79,0,0,0,1.675-.288,3.623,3.623,0,0,0,1.344-.858,4.037,4.037,0,0,0,.89-1.412,5.424,5.424,0,0,0,.326-1.958,5.325,5.325,0,0,0-.331-1.958,4.059,4.059,0,0,0-.909-1.42" transform="translate(495.157 -306.388)" fill="#fff"/>
      <path id="Path_129" data-name="Path 129" d="M-466.944,310.237a3.2,3.2,0,0,1-1.546.276h-.54V308.16l.313-.024c.11-.008.235-.014.375-.014a2.869,2.869,0,0,1,1.393.27.96.96,0,0,1,.472.908,1,1,0,0,1-.466.937m1.946,3.072c-.185-.3-.37-.6-.558-.876s-.369-.526-.54-.745a2.692,2.692,0,0,0,1.184-.894,2.474,2.474,0,0,0,.412-1.481,2.434,2.434,0,0,0-1.018-2.16,5.2,5.2,0,0,0-2.935-.693c-.351,0-.75.015-1.2.05a10.626,10.626,0,0,0-1.295.175v8.544h1.915v-3.166h.945c.164.2.329.423.493.671s.33.507.5.781.333.558.493.851.317.581.475.863h2.14c-.149-.317-.307-.64-.479-.97s-.349-.646-.533-.95" transform="translate(497.931 -306.36)" fill="#fff"/>
      <path id="Path_130" data-name="Path 130" d="M-462.52,311.773q.2-.562.4-1.074c.13-.342.247-.654.352-.938s.2-.536.281-.75.145-.39.187-.514c.052.121.118.292.2.508s.18.466.288.752.227.6.349.94.248.7.377,1.076Zm3.811-1.4q-.413-1.053-.82-2t-.826-1.845h-1.816c-.285.6-.564,1.217-.83,1.845s-.537,1.295-.813,2-.556,1.448-.842,2.239-.59,1.657-.911,2.59h1.987q.14-.449.3-.926c.109-.317.217-.634.323-.95h3.322c.109.315.217.629.326.947s.21.628.305.929h2.051q-.48-1.4-.913-2.59t-.844-2.239" transform="translate(500.041 -306.332)" fill="#fff"/>
    </g>
    <path id="Path_131" data-name="Path 131" d="M-460.006,308.2h2.565V315.2h1.914V308.2h2.565v-1.664h-7.044Z" transform="translate(67.893 39.502)" fill="#fff"/>
    <path id="Path_132" data-name="Path 132" d="M-452.309,311.473h3.4v-1.6h-3.4v-1.7h3.829v-1.64h-5.744v8.67h6.026v-1.639h-4.112Z" transform="translate(70.161 39.502)" fill="#fff"/>
    <path id="Path_133" data-name="Path 133" d="M-542.414,295v-2.481a2.842,2.842,0,0,0-.834-2.044,2.774,2.774,0,0,0-2.04-.858h-22.6V259.042a2.879,2.879,0,0,0-.841-2.1,2.772,2.772,0,0,0-2.036-.855h-4.963a2.789,2.789,0,0,0-2.044.852,2.849,2.849,0,0,0-.854,2.1v36.012a2.662,2.662,0,0,0,.861,2.015,2.868,2.868,0,0,0,2.037.809h30.44a2.8,2.8,0,0,0,2.037-.841,2.793,2.793,0,0,0,.837-2.034" transform="translate(21.35 19.71)" fill="#fff"/>
    <path id="Path_134" data-name="Path 134" d="M-541.5,264.674h-5.916a1.963,1.963,0,0,0-1.419.56,1.916,1.916,0,0,0-.583,1.436v25.842a1.951,1.951,0,0,0,.564,1.437,1.973,1.973,0,0,0,1.438.561h5.916a1.969,1.969,0,0,0,1.417-.557,1.918,1.918,0,0,0,.585-1.441V266.669a1.97,1.97,0,0,0-.56-1.416,1.946,1.946,0,0,0-1.443-.579" transform="translate(32.808 23.079)" fill="#fff"/>
    <path id="Path_135" data-name="Path 135" d="M-505.66,264.752h-5.1a4.312,4.312,0,0,0-2.352.711,3.988,3.988,0,0,0-1.572,1.849l-6.821,15.627-6.846-15.62a4.025,4.025,0,0,0-1.576-1.857,4.3,4.3,0,0,0-2.352-.71h-5.07a1.537,1.537,0,0,0-1.566.9,1.711,1.711,0,0,0-.17.785,2.943,2.943,0,0,0,.3,1.2l11.409,24.291a4.333,4.333,0,0,0,1.622,1.838,4.155,4.155,0,0,0,2.295.713h3.889a4.247,4.247,0,0,0,2.306-.709,4.265,4.265,0,0,0,1.637-1.839l11.416-24.308a3.013,3.013,0,0,0,.265-1.157,1.516,1.516,0,0,0-.135-.787,1.549,1.549,0,0,0-1.576-.927" transform="translate(36.865 23.109)" fill="#fff"/>
    <path id="Path_136" data-name="Path 136" d="M-508.628,264.674a1.976,1.976,0,0,0-1.424.56,1.92,1.92,0,0,0-.582,1.436v25.842a1.953,1.953,0,0,0,.565,1.437,1.971,1.971,0,0,0,1.441.561h5.912a1.964,1.964,0,0,0,1.419-.557,1.91,1.91,0,0,0,.586-1.441V266.669a1.948,1.948,0,0,0-.564-1.416,1.941,1.941,0,0,0-1.441-.579Z" transform="translate(48.027 23.079)" fill="#fff"/>
    <path id="Path_137" data-name="Path 137" d="M-477.1,292.621a1.974,1.974,0,0,0,.56,1.423,1.905,1.905,0,0,0,1.441.583h5.888a2.014,2.014,0,0,0,1.451-.561,1.941,1.941,0,0,0,.579-1.445V277.467c0-4.386-1.122-7.7-3.34-9.852s-5.264-3.241-9.069-3.241a14.325,14.325,0,0,0-8.846,3.4v-.84a2,2,0,0,0-.56-1.448,1.944,1.944,0,0,0-1.447-.583h-5.911a1.959,1.959,0,0,0-1.427.578,1.97,1.97,0,0,0-.578,1.454v25.691a1.957,1.957,0,0,0,.564,1.441,1.975,1.975,0,0,0,1.441.565h5.911a1.984,1.984,0,0,0,1.426-.561,1.943,1.943,0,0,0,.581-1.445V275.094c2.384-2.353,4.631-3.546,6.728-3.546,3.1,0,4.607,1.938,4.607,5.919Z" transform="translate(52.844 22.961)" fill="#fff"/>
    <path id="Path_138" data-name="Path 138" d="M-451.1,284.524a23.544,23.544,0,0,1-5.354.707c-3.848,0-5.72-2.2-5.72-6.734,0-4.677,1.909-6.949,5.834-6.949H-456a21.326,21.326,0,0,1,4.907.493Zm9.726-17.14a21.373,21.373,0,0,0-6.331-2.144,39.463,39.463,0,0,0-8.03-.866c-5.214,0-9.282,1.241-12.094,3.688-2.831,2.46-4.268,5.969-4.268,10.436,0,4.276,1.252,7.7,3.725,10.175a13.2,13.2,0,0,0,9.752,3.734,32.225,32.225,0,0,0,7.52-.972v.738c0,1.93-.416,3.279-1.239,4.01-.84.739-2.291,1.115-4.311,1.115-2.679,0-4.488-.554-5.372-1.651a4.125,4.125,0,0,0-3.343-1.543h-3.931a1.973,1.973,0,0,0-1.456.579,1.973,1.973,0,0,0-.578,1.451,6.357,6.357,0,0,0,4.017,6.15c2.568,1.19,6.378,1.792,11.321,1.792,4.5,0,8.122-.969,10.767-2.884,2.68-1.945,4.042-4.978,4.042-9.02V267.5Z" transform="translate(63.15 22.961)" fill="#fff"/>
    <path id="Path_139" data-name="Path 139" d="M-544.357,254.077a5.331,5.331,0,0,0-5.33,5.329,5.3,5.3,0,0,0,1.184,3.343,5.319,5.319,0,0,0,4.146,1.985,5.318,5.318,0,0,0,4.145-1.985,5.307,5.307,0,0,0,1.184-3.343,5.329,5.329,0,0,0-5.329-5.329" transform="translate(32.704 18.921)" fill="#fff"/>
    <path id="Path_140" data-name="Path 140" d="M-505.569,264.734a5.314,5.314,0,0,0,4.145-1.985,5.3,5.3,0,0,0,1.184-3.343,5.329,5.329,0,0,0-5.329-5.329,5.331,5.331,0,0,0-5.33,5.329,5.292,5.292,0,0,0,1.184,3.343,5.315,5.315,0,0,0,4.146,1.985" transform="translate(47.924 18.921)" fill="#fff"/>
  </g>
</svg>
