<svg class="letter-svg letter-svg-3" xmlns="http://www.w3.org/2000/svg" width="128.334" height="75.073" viewBox="0 0 128.334 75.073">
  <g id="Group_18" data-name="Group 18" transform="translate(-368.675 187.667)">
    <g id="Group_4" data-name="Group 4" transform="translate(368.675 -187.667)">
      <path id="Path_1" data-name="Path 1" d="M-1091.941-43.505h.938a6.681,6.681,0,0,1,4.519,2.541,6.519,6.519,0,0,1,1.246,5.074,6.514,6.514,0,0,1-3.439,4.669,6.526,6.526,0,0,1-5.6.159,6.589,6.589,0,0,1-3.864-5.434v-.814a6.52,6.52,0,0,1,1.759-4.155A6.514,6.514,0,0,1-1091.941-43.505Z" transform="translate(1098.139 43.505)" fill="#f9b040"/>
      <path id="Path_2" data-name="Path 2" d="M-1085.78,69.175a9.948,9.948,0,0,0,6.646,1.1,12.417,12.417,0,0,0,3.04-1.079q0,16.8,0,33.6a2.8,2.8,0,0,0,.669,1.9,2.794,2.794,0,0,0,3.11.656,2.908,2.908,0,0,0,1.662-1.807,6,6,0,0,0,.122-1.687q0-3.475,0-6.949a5.841,5.841,0,0,1,.428-2.766,4.8,4.8,0,0,1,5.024-2.738,4.768,4.768,0,0,1,4.08,4.428c.015,2.945,0,5.891.005,8.836a12.278,12.278,0,0,1-2.492,7.474,12.483,12.483,0,0,1-7.356,4.688,13.165,13.165,0,0,1-8.056-.909,12.3,12.3,0,0,1-5.57-4.7,8.662,8.662,0,0,1-1.311-4.549Z" transform="translate(1087.434 -54.096)" fill="#f9b040"/>
    </g>
    <g id="Group_5" data-name="Group 5" transform="translate(385.581 -186.381)">
      <path id="Path_3" data-name="Path 3" d="M-971.8-1.67q0-16.113.005-32.225c9.571.02,19.143,0,28.714.009a9.292,9.292,0,0,1,6.211,2.676,13.694,13.694,0,0,1,4.089,9.141,12.336,12.336,0,0,1-2.112,7.519,12.405,12.405,0,0,1-10.062,5.463q-4.48.006-8.963,0a4.765,4.765,0,0,1-4.55-4.135,4.808,4.808,0,0,1,2.771-5,4.886,4.886,0,0,1,2.055-.412c2.809.005,5.618,0,8.425,0a2.87,2.87,0,0,0,2.573-1.509,2.873,2.873,0,0,0,.062-2.559,2.883,2.883,0,0,0-2.638-1.638c-5.681,0-11.363-.015-17.042.005q.008,11.327,0,22.656A8.291,8.291,0,0,0-967.7-3.191,8.478,8.478,0,0,0-971.8-1.67Z" transform="translate(971.807 33.895)" fill="#ef5b2a"/>
    </g>
    <g id="Group_16" data-name="Group 16" transform="translate(371.012 -153.886)">
      <path id="Path_4" data-name="Path 4" d="M-659.779,209.028a2.707,2.707,0,0,1,3.257,1.708,2.71,2.71,0,0,1-.772,2.912,2.7,2.7,0,0,1-3.233.231,2.691,2.691,0,0,1-1.215-2.458A2.689,2.689,0,0,1-659.779,209.028Z" transform="translate(717.812 -208.927)" fill="#fff"/>
      <path id="Path_5" data-name="Path 5" d="M-456.809,209.073a2.707,2.707,0,0,1,3.323,1.516,2.717,2.717,0,0,1-.513,2.872,2.7,2.7,0,0,1-3.1.608,2.694,2.694,0,0,1-1.548-2.634A2.7,2.7,0,0,1-456.809,209.073Z" transform="translate(541.898 -208.934)" fill="#fff"/>
      <path id="Path_6" data-name="Path 6" d="M-812.3,219.493a24.808,24.808,0,0,1,2.769-.07,1.527,1.527,0,0,1,1.659,1.738c-.012,4.907,0,9.814-.008,14.722.02.151-.076.483.2.414q5.562,0,11.122,0a1.445,1.445,0,0,1,1.238.628c.407.591.221,1.36.258,2.031a1.457,1.457,0,0,1-1.5,1.515q-7.62,0-15.241,0a1.477,1.477,0,0,1-1.437-1.006,5.494,5.494,0,0,1-.056-1.176q0-8.234,0-16.465a9.734,9.734,0,0,1,.029-1.218A1.459,1.459,0,0,1-812.3,219.493Z" transform="translate(849.082 -218.007)" fill="#fff"/>
      <path id="Path_7" data-name="Path 7" d="M-388.017,264.585a7.188,7.188,0,0,1,4.6-1.69,6.094,6.094,0,0,1,4.756,2.011,7.411,7.411,0,0,1,1.33,4.89c0,2.453,0,4.906,0,7.357a.971.971,0,0,1-1,.977c-1.022.007-2.045.012-3.067,0a.955.955,0,0,1-.927-.953c-.019-2.592,0-5.186-.009-7.779a3.386,3.386,0,0,0-.689-2.276,2.407,2.407,0,0,0-2.256-.529,6.074,6.074,0,0,0-2.749,1.716q0,4.428,0,8.856a.973.973,0,0,1-1.005.969c-1.026,0-2.053.012-3.079-.005a.977.977,0,0,1-.917-1.093c0-4.29-.005-8.581,0-12.87a.97.97,0,0,1,.9-.994c.893-.035,1.787,0,2.68-.016a1.456,1.456,0,0,1,1.139.29A1.522,1.522,0,0,1-388.017,264.585Z" transform="translate(485.059 -255.67)" fill="#fff"/>
      <g id="Group_6" data-name="Group 6" transform="translate(110.424 7.22)">
        <path id="Path_8" data-name="Path 8" d="M-251.393,263.572a14.264,14.264,0,0,1,7.232-.428,13.235,13.235,0,0,1,4.227,1.3v13.167a5.3,5.3,0,0,1-1.793,3.641c-1.778,1.427-4.171,1.7-6.376,1.625a13.376,13.376,0,0,1-4.975-.887,3.242,3.242,0,0,1-1.948-2.28,1.747,1.747,0,0,1,.181-1.54c.388-.428,1.01-.3,1.523-.321a6.364,6.364,0,0,1,2.1.17c.614.23.919.9,1.534,1.131a5.45,5.45,0,0,0,2.114.309,3.073,3.073,0,0,0,2.092-.634,3.38,3.38,0,0,0,.557-2.29,12.609,12.609,0,0,1-5.944.2,6.14,6.14,0,0,1-4.238-4.055,8.916,8.916,0,0,1,.049-5.428A6.171,6.171,0,0,1-251.393,263.572Zm1.658,3.774a4.654,4.654,0,0,0-.716,3.394,2.666,2.666,0,0,0,1.637,2.458,8.036,8.036,0,0,0,3.869-.158c.027-2.1.007-4.19.011-6.284a11.083,11.083,0,0,0-2.359-.248A2.965,2.965,0,0,0-249.735,267.346Z" transform="translate(255.506 -262.883)" fill="#fff"/>
      </g>
      <path id="Path_9" data-name="Path 9" d="M-659.761,264.494a32.742,32.742,0,0,1,3.284-.066,1,1,0,0,1,1.105,1.072q0,6.417,0,12.836a1,1,0,0,1-.965,1.116c-1.021.009-2.042.008-3.063,0a.962.962,0,0,1-.978-.977c-.009-4.324,0-8.649,0-12.973A.99.99,0,0,1-659.761,264.494Z" transform="translate(716.626 -256.992)" fill="#fff"/>
      <path id="Path_10" data-name="Path 10" d="M-605.531,264.865c.648-.07,1.3-.012,1.951-.031a5.845,5.845,0,0,1,1.483.09,2.176,2.176,0,0,1,1.4,1.247c1.066,2.454,2.154,4.9,3.217,7.357.079.107.075.336.248.339q1.694-3.884,3.391-7.77a2.179,2.179,0,0,1,2.026-1.262c.854,0,1.71-.011,2.565.005a.781.781,0,0,1,.794.606,2.293,2.293,0,0,1-.363,1.381q-2.746,5.821-5.475,11.65a2.271,2.271,0,0,1-2.055,1.334q-.935,0-1.871,0a2.265,2.265,0,0,1-2.05-1.336q-2.8-5.976-5.612-11.949C-606.22,266-606.287,265.035-605.531,264.865Z" transform="translate(669.629 -257.349)" fill="#fff"/>
      <path id="Path_11" data-name="Path 11" d="M-456.7,264.542a4.009,4.009,0,0,1,1.153-.078c.811.017,1.625-.028,2.436.021a.976.976,0,0,1,.82,1.057c0,4.325.008,8.65-.005,12.975a.975.975,0,0,1-.981.973q-1.534.01-3.068,0a.986.986,0,0,1-.954-1.1q0-6.425,0-12.851A.985.985,0,0,1-456.7,264.542Z" transform="translate(540.728 -257.029)" fill="#fff"/>
      <path id="Path_12" data-name="Path 12" d="M-652.749,483.435a7.628,7.628,0,0,0,.942.029c.017,1.459,0,2.919.008,4.377h-.83a17.806,17.806,0,0,0-1.895-2.817c-.025.938-.007,1.878-.011,2.817q-.486,0-.969,0,0-2.19,0-4.379l.814.007a19.353,19.353,0,0,1,1.9,2.544C-652.746,485.156-652.8,484.294-652.749,483.435Z" transform="translate(712.4 -446.7)" fill="#fff"/>
      <path id="Path_13" data-name="Path 13" d="M-1079.941,483.433a2.669,2.669,0,0,1,2.8-.185c-.094.27-.186.542-.278.812a2.124,2.124,0,0,0-1.57-.134,1.284,1.284,0,0,0-.671,1.231,1.35,1.35,0,0,0,.653,1.354,2.351,2.351,0,0,0,1.657-.115c.091.262.181.526.272.79a7.208,7.208,0,0,1-1.172.379h-.566a2.166,2.166,0,0,1-1.622-1.119A2.7,2.7,0,0,1-1079.941,483.433Z" transform="translate(1080.677 -446.273)" fill="#fff"/>
      <g id="Group_7" data-name="Group 7" transform="translate(3.735 36.664)">
        <path id="Path_14" data-name="Path 14" d="M-1052.442,483.907a2.178,2.178,0,0,1,3.552-.161,2.74,2.74,0,0,1,0,2.9,2.435,2.435,0,0,1-1.5.89h-.585a2.975,2.975,0,0,1-1.318-.806A2.7,2.7,0,0,1-1052.442,483.907Zm1.52-.083c-.885.274-1,1.465-.651,2.195a1.079,1.079,0,0,0,1.749.231,1.87,1.87,0,0,0,.2-1.79A1.066,1.066,0,0,0-1050.922,483.824Z" transform="translate(1052.765 -482.907)" fill="#fff"/>
      </g>
      <path id="Path_15" data-name="Path 15" d="M-1015.7,483.666c.276,0,.551,0,.827.012a21.446,21.446,0,0,1,1.886,2.531c.013-.846.005-1.693.005-2.539l.968-.005c.008,1.459-.005,2.917.009,4.376l-.822,0a18.426,18.426,0,0,0-1.9-2.83c-.013.942,0,1.884-.005,2.826q-.484,0-.967,0Q-1015.7,485.854-1015.7,483.666Z" transform="translate(1024.394 -446.899)" fill="#fff"/>
      <path id="Path_16" data-name="Path 16" d="M-981.624,483.585c.269.008.538.015.807.024a21.231,21.231,0,0,1,1.9,2.535c0-.85,0-1.7,0-2.547.325,0,.65,0,.977,0q0,2.186,0,4.372c-.273,0-.545,0-.818,0a17.821,17.821,0,0,0-1.9-2.816c-.019.937,0,1.875-.008,2.813l-.968,0C-981.626,486.512-981.654,485.048-981.624,483.585Z" transform="translate(994.892 -446.83)" fill="#fff"/>
      <path id="Path_17" data-name="Path 17" d="M-947.592,483.655c.968.008,1.935,0,2.9,0q0,.416,0,.835c-.646.005-1.294-.017-1.939.017.005.274.009.549.015.824.567,0,1.135,0,1.7,0q0,.412,0,.826h-1.713q0,.514,0,1.032c.692,0,1.382,0,2.074,0,0,.278,0,.559-.005.84q-1.523,0-3.048,0C-947.59,486.574-947.6,485.114-947.592,483.655Z" transform="translate(965.407 -446.891)" fill="#fff"/>
      <path id="Path_18" data-name="Path 18" d="M-921.26,483.528a2.549,2.549,0,0,1,2.92-.278q-.144.393-.282.794a2.137,2.137,0,0,0-1.578-.13,1.3,1.3,0,0,0-.662,1.225,1.37,1.37,0,0,0,.661,1.362,2.363,2.363,0,0,0,1.65-.118c.088.264.177.529.266.792a8.436,8.436,0,0,1-1.147.375H-920a2.185,2.185,0,0,1-1.623-1.084A2.757,2.757,0,0,1-921.26,483.528Z" transform="translate(943.131 -446.257)" fill="#fff"/>
      <path id="Path_19" data-name="Path 19" d="M-893.181,483.606c1.178,0,2.355.015,3.531-.011.011.286.015.574.02.862l-1.271-.009c-.052,1.176-.011,2.355-.023,3.533h-.977c0-1.176,0-2.354,0-3.53-.428,0-.858,0-1.287,0C-893.187,484.17-893.184,483.888-893.181,483.606Z" transform="translate(918.279 -446.839)" fill="#fff"/>
      <path id="Path_20" data-name="Path 20" d="M-832.637,483.431a2.616,2.616,0,0,1,2.813-.185q-.145.4-.288.8a2.3,2.3,0,0,0-1.437-.182,1.21,1.21,0,0,0-.787,1.146,1.5,1.5,0,0,0,.527,1.422,2.117,2.117,0,0,0,1.774-.049c.091.266.181.531.273.8a11.288,11.288,0,0,1-1.132.369h-.63a2.211,2.211,0,0,1-1.568-1.062A2.707,2.707,0,0,1-832.637,483.431Z" transform="translate(866.458 -446.26)" fill="#fff"/>
      <g id="Group_8" data-name="Group 8" transform="translate(36.829 36.664)">
        <path id="Path_21" data-name="Path 21" d="M-805.1,483.842a2.191,2.191,0,0,1,3.385-.258,2.725,2.725,0,0,1,.265,2.834,2.33,2.33,0,0,1-1.6,1.115h-.673A3.181,3.181,0,0,1-805,486.7,2.7,2.7,0,0,1-805.1,483.842Zm1.572-.039a1.5,1.5,0,0,0,0,2.775,1.062,1.062,0,0,0,1.152-.543,1.949,1.949,0,0,0,.008-1.675A1.045,1.045,0,0,0-803.528,483.8Z" transform="translate(805.462 -482.903)" fill="#fff"/>
      </g>
      <path id="Path_22" data-name="Path 22" d="M-768.989,483.677c.317,0,.637,0,.955.009.415.828.733,1.7,1.151,2.529.356-.854.717-1.7,1.126-2.533q.458-.008.915,0c.177,1.453.258,2.916.328,4.379q-.478-.006-.954-.005c-.035-.941-.032-1.884-.154-2.818-.325.751-.634,1.508-.953,2.263h-.688c-.323-.752-.626-1.512-.959-2.26-.119.934-.106,1.878-.159,2.817h-.947C-769.25,486.593-769.187,485.128-768.989,483.677Z" transform="translate(810.994 -446.909)" fill="#fff"/>
      <path id="Path_23" data-name="Path 23" d="M-728.409,483.681h.946c.432.828.757,1.706,1.162,2.549.357-.861.724-1.717,1.139-2.551.3,0,.6,0,.9,0,.2,1.451.253,2.915.344,4.375l-.958,0c-.033-.938-.059-1.878-.139-2.811-.363.733-.646,1.5-.972,2.252-.225.005-.45.009-.673.016-.355-.757-.634-1.547-.993-2.3-.071.945-.108,1.892-.135,2.84-.317,0-.634.005-.95.007C-728.675,486.6-728.591,485.134-728.409,483.681Z" transform="translate(775.836 -446.913)" fill="#fff"/>
      <path id="Path_24" data-name="Path 24" d="M-687.739,483.666h.981c.02.973-.039,1.948.025,2.92a.738.738,0,0,0,.946.661.762.762,0,0,0,.575-.8c.033-.927,0-1.856.011-2.784l.975,0c-.032,1.067.06,2.141-.048,3.2a1.714,1.714,0,0,1-1.428,1.318h-.569a2.221,2.221,0,0,1-1.14-.656,1.948,1.948,0,0,1-.328-1.2C-687.742,485.443-687.731,484.555-687.739,483.666Z" transform="translate(740.322 -446.899)" fill="#fff"/>
      <path id="Path_25" data-name="Path 25" d="M-608.316,483.39a2.656,2.656,0,0,1,2.761-.147q-.14.4-.28.808a2.146,2.146,0,0,0-1.558-.142,1.289,1.289,0,0,0-.678,1.239,1.374,1.374,0,0,0,.581,1.315,2.2,2.2,0,0,0,1.73-.079c.088.266.175.533.265.8a10.294,10.294,0,0,1-1.139.369h-.559a2.164,2.164,0,0,1-1.645-1.088A2.69,2.69,0,0,1-608.316,483.39Z" transform="translate(672.2 -446.262)" fill="#fff"/>
      <g id="Group_9" data-name="Group 9" transform="translate(66.929 36.769)">
        <path id="Path_26" data-name="Path 26" d="M-578.836,483.694q.474-.008.949,0c.642,1.424,1.2,2.884,1.7,4.364-.352,0-.7,0-1.053,0q-.153-.472-.312-.937c-.549,0-1.1,0-1.643-.005-.122.313-.233.632-.34.951-.336-.005-.672-.007-1.006-.007A44.082,44.082,0,0,1-578.836,483.694Zm.446,1.026c-.2.538-.405,1.07-.586,1.614l1.2-.011C-577.975,485.786-578.164,485.245-578.39,484.721Z" transform="translate(580.539 -483.691)" fill="#fff"/>
      </g>
      <path id="Path_27" data-name="Path 27" d="M-551.419,483.678c1.187,0,2.375,0,3.564,0,0,.282,0,.565.005.848-.435-.005-.868-.005-1.3.007.008,1.172,0,2.346,0,3.519h-.982c0-1.175,0-2.349,0-3.522q-.646-.01-1.291,0C-551.419,484.241-551.419,483.96-551.419,483.678Z" transform="translate(622.245 -446.908)" fill="#fff"/>
      <path id="Path_28" data-name="Path 28" d="M-521.093,483.675q1.451,0,2.905,0c0,.284-.007.569-.023.852-.635-.029-1.271-.012-1.905-.015,0,.28,0,.561,0,.842.569,0,1.137,0,1.708,0,0,.273,0,.546,0,.822-.571,0-1.141-.009-1.712.013,0,.34,0,.68,0,1.021.689,0,1.38,0,2.069,0,0,.278,0,.559,0,.839-1.016,0-2.03,0-3.043,0Q-521.093,485.863-521.093,483.675Z" transform="translate(595.977 -446.908)" fill="#fff"/>
      <path id="Path_29" data-name="Path 29" d="M-463.76,483.5a2.6,2.6,0,0,1,2.881-.246c-.1.268-.19.537-.284.806a2.173,2.173,0,0,0-1.522-.158,1.237,1.237,0,0,0-.705,1.129,1.479,1.479,0,0,0,.526,1.409,2.135,2.135,0,0,0,1.776-.044c.09.265.181.529.273.795a10.9,10.9,0,0,1-1.133.371h-.721a2.345,2.345,0,0,1-1.469-1.042A2.748,2.748,0,0,1-463.76,483.5Z" transform="translate(546.886 -446.266)" fill="#fff"/>
      <g id="Group_10" data-name="Group 10" transform="translate(86.204 36.664)">
        <path id="Path_30" data-name="Path 30" d="M-436.179,483.918a2.188,2.188,0,0,1,3.422-.34,2.713,2.713,0,0,1,.272,2.844,2.324,2.324,0,0,1-1.6,1.115h-.545a3.411,3.411,0,0,1-1.208-.6A2.63,2.63,0,0,1-436.179,483.918Zm1.393-.048a1.639,1.639,0,0,0-.534,2.12,1.078,1.078,0,0,0,1.8.214,1.9,1.9,0,0,0,.108-1.847A1.077,1.077,0,0,0-434.786,483.87Z" transform="translate(436.499 -482.908)" fill="#fff"/>
      </g>
      <path id="Path_31" data-name="Path 31" d="M-399.443,483.676h.972c.008,1.175-.013,2.351.012,3.527.632,0,1.265,0,1.9,0q0,.424-.005.848-1.437,0-2.876,0C-399.445,486.592-399.447,485.134-399.443,483.676Z" transform="translate(490.608 -446.908)" fill="#fff"/>
      <path id="Path_32" data-name="Path 32" d="M-374.289,483.676h.984c-.007,1.175-.009,2.351,0,3.526.633,0,1.266,0,1.9,0q-.006.425-.008.854h-2.873C-374.29,486.592-374.282,485.135-374.289,483.676Z" transform="translate(468.818 -446.908)" fill="#fff"/>
      <g id="Group_11" data-name="Group 11" transform="translate(97.668 36.768)">
        <path id="Path_33" data-name="Path 33" d="M-349.136,483.681c.31,0,.624,0,.937,0a39.745,39.745,0,0,1,1.7,4.379c-.347-.005-.693-.007-1.038-.007-.1-.3-.2-.609-.293-.915-.559-.044-1.121-.019-1.681-.024-.107.31-.212.624-.312.937-.335,0-.67.005-1,.013A37.817,37.817,0,0,1-349.136,483.681Zm-.153,2.632c.4.012.807.012,1.21-.011-.207-.53-.4-1.067-.6-1.6C-348.9,485.235-349.089,485.776-349.289,486.314Z" transform="translate(350.829 -483.681)" fill="#fff"/>
      </g>
      <g id="Group_12" data-name="Group 12" transform="translate(102.428 36.711)">
        <path id="Path_34" data-name="Path 34" d="M-315.262,483.381a4.744,4.744,0,0,1,2.612.127,1.073,1.073,0,0,1,.13,1.812,1.241,1.241,0,0,1-.193,2.267,8.228,8.228,0,0,1-2.518.071C-315.3,486.234-315.237,484.806-315.262,483.381Zm.959.7c-.008.32-.011.64-.011.961.414-.045.962.1,1.253-.281a.478.478,0,0,0-.14-.573A2.683,2.683,0,0,0-314.3,484.079Zm0,1.711q-.014.562,0,1.127c.454,0,1.006.094,1.365-.256a.532.532,0,0,0-.2-.771A3.554,3.554,0,0,0-314.3,485.791Z" transform="translate(315.263 -483.261)" fill="#fff"/>
      </g>
      <g id="Group_13" data-name="Group 13" transform="translate(106.276 36.664)">
        <path id="Path_35" data-name="Path 35" d="M-286.186,483.92a2.187,2.187,0,0,1,3.423-.343,2.709,2.709,0,0,1,.223,2.932,2.366,2.366,0,0,1-1.552,1.026h-.543a3.02,3.02,0,0,1-1.279-.678A2.655,2.655,0,0,1-286.186,483.92Zm1.4-.052a1.641,1.641,0,0,0-.538,2.117,1.08,1.08,0,0,0,1.756.278,1.853,1.853,0,0,0,.162-1.9A1.08,1.08,0,0,0-284.79,483.867Z" transform="translate(286.504 -482.907)" fill="#fff"/>
      </g>
      <g id="Group_14" data-name="Group 14" transform="translate(111.235 36.714)">
        <path id="Path_36" data-name="Path 36" d="M-249.448,483.385a4.33,4.33,0,0,1,2.7.218,1.368,1.368,0,0,1-.223,2.34,9.627,9.627,0,0,1,1.042,1.765c-.363,0-.724,0-1.084.007a12.036,12.036,0,0,0-.972-1.558,1.982,1.982,0,0,0-.492-.063c0,.538,0,1.077,0,1.615l-.973,0C-249.445,486.267-249.448,484.826-249.448,483.385Zm.984.748c-.013.4-.015.8,0,1.2a2.151,2.151,0,0,0,1.129-.217.606.606,0,0,0-.009-.788A1.916,1.916,0,0,0-248.464,484.133Z" transform="translate(249.449 -483.276)" fill="#fff"/>
      </g>
      <g id="Group_15" data-name="Group 15" transform="translate(115.002 36.768)">
        <path id="Path_37" data-name="Path 37" d="M-219.608,483.7c.317-.013.636-.015.955-.009a45.729,45.729,0,0,1,1.706,4.371c-.353,0-.705,0-1.057-.008-.095-.313-.2-.624-.306-.931h-1.658c-.108.306-.21.617-.3.93-.344.012-.688.013-1.03.009C-220.8,486.578-220.246,485.118-219.608,483.7Zm.454,1.025c-.194.535-.4,1.067-.592,1.6q.6,0,1.2,0C-218.735,485.786-218.91,485.24-219.154,484.72Z" transform="translate(221.299 -483.683)" fill="#fff"/>
      </g>
      <path id="Path_38" data-name="Path 38" d="M-192.137,483.665q1.776.006,3.553,0c0,.284,0,.566.005.85q-.648-.008-1.294,0,0,1.762,0,3.525h-.981c0-1.178,0-2.354,0-3.53-.427,0-.851,0-1.277.011Q-192.142,484.093-192.137,483.665Z" transform="translate(311.043 -446.899)" fill="#fff"/>
      <path id="Path_39" data-name="Path 39" d="M-161.9,483.675q1.451,0,2.9,0c0,.278,0,.557,0,.836-.644,0-1.286,0-1.928,0,0,.278,0,.558,0,.838q.855.006,1.71,0,0,.407.012.818c-.574.011-1.148.009-1.721.009,0,.344,0,.688,0,1.033.689,0,1.378,0,2.068,0v.84c-1.016,0-2.03,0-3.046,0C-161.9,486.591-161.907,485.132-161.9,483.675Z" transform="translate(284.856 -446.908)" fill="#fff"/>
      <path id="Path_40" data-name="Path 40" d="M-854.792,498.114a.585.585,0,0,1,.9.51.583.583,0,0,1-.888.5A.593.593,0,0,1-854.792,498.114Z" transform="translate(885.26 -459.337)" fill="#fff"/>
      <path id="Path_41" data-name="Path 41" d="M-485.81,498.112a.586.586,0,0,1,.883.522.585.585,0,0,1-.887.5A.6.6,0,0,1-485.81,498.112Z" transform="translate(565.663 -459.346)" fill="#fff"/>
    </g>
    <g id="Group_17" data-name="Group 17" transform="translate(432.464 -117.121)">
      <path id="Path_42" data-name="Path 42" d="M-621.459,483.665h.976c0,1.459,0,2.917,0,4.377l-.974,0Q-621.451,485.853-621.459,483.665Z" transform="translate(621.459 -483.665)" fill="#fff"/>
    </g>
  </g>
</svg>
